# xmcd
#
# Track frame offsets:
# 150
# 13790
# 26622
# 40390
# 55725
# 69795
# 83235
# 96057
# 110475
# 125610
# 138920
# 152557
# 165365
# 175617
# 187027
# 199662
# 213152
# 225400
#
# Disc length: 3180 seconds
#
#
# Revision: 0
# Processed by: cddbd v1.5PL3 Copyright (c) Steve Scherf et al.
# Submitted via: FreeRIP 2.51 
#
DISCID=e00c6a12
DTITLE=Dinah Washington - Queen Of Blues
DYEAR=2002
DGENRE=Blues
TTITLE0=Mad About The Boy
TTITLE1=Baby, Get Lost
TTITLE2=Stormy Weather
TTITLE3=My Kind Of Man
TTITLE4=My Devotion
TTITLE5=Make Believe Dreams
TTITLE6=I Wonna Be loved
TTITLE7=I Challange Your Kiss
TTITLE8=Cold, Cold Heart
TTITLE9=My Song
TTITLE10=Please Send Me Someone To Love
TTITLE11=Trouble In Mind
TTITLE12=When The Sun Goes Down
TTITLE13=Half As Much
TTITLE14=I Can't Face The Music
TTITLE15=Mixed Emotions
TTITLE16=I'm crying
TTITLE17=I'm Getting Old Before My Time
EXTD=24 Bit  Remastered
EXTT0=
EXTT1=
EXTT2=
EXTT3=
EXTT4=
EXTT5=
EXTT6=
EXTT7=
EXTT8=
EXTT9=
EXTT10=
EXTT11=
EXTT12=
EXTT13=
EXTT14=
EXTT15=
EXTT16=
EXTT17=
PLAYORDER=
